 http://img821.imageshack.us/img821/2444/936fulllaposesiondeemma.jpg

Country.......: Spain
Genre.........: Horror
Date release..: 13.10.2010 [World]
Director......: Manuel Carballo
Writers.......: David Munoz
Duration......: 95 min.
More..........: http://www.imdb.com/title/tt1322306
Trailer.......: http://www.imdb.com/video/screenplay/vi1174968857
Trailer.......:

Pilot :
At home Evansów inexplicable things happen, and teenage Emma seems to be possessed. A girl is daily visited by a priest who tries to help her, among others. using hypnosis. Hidden camera in the room Emmy record, what happens during these sessions ..

Cats :
Doug Bradley   	 ...  	Father Ennis (as Douglas Bradley)
Tommy Bastow 	... 	Alex
Stephen Billington 	... 	Christopher
Sophie Vavasseur 	... 	Emma
Richard Felix 	... 	John
Jo Anne Stockham 	... 	Lucy
Brendan Price 	... 	Brian
Claudia Costas 	... 	Jessica
Isamaya French 	... 	Rose
Cristina Cervia 	... 	Jessica s Mother
Pere Raich 	... 	Spanish Priest 2
Lazzaro E. Oertli Ortiz 	... 	Mark
Francesc Ten 	... 	Spanish Priest 1
Emma Reynolds 	... 	Sarah
Joan Roca 	... 	Spanish Priest 3 

Data Technical :
!!! SAMPLE !!!
Audio.....: English
Subtitles.: None
Format                           : AVI
Format/Info                      : Audio Video Interleave
File size                        : 1.22 GiB
Duration                         : 1h 35mn
Overall bit rate                 : 1 829 Kbps
Writing library                  : VirtualDub build 32817/release
Video
ID                               : 0
Format                           : MPEG-4 Visual
Format profile                   : Advanced Simple@L5
Format settings, BVOP            : Yes
Format settings, QPel            : No
Format settings, GMC             : No warppoints
Format settings, Matrix          : Custom
Codec ID                         : XVID
Codec ID/Hint                    : XviD
Duration                         : 1h 35mn
Bit rate                         : 1 372 Kbps
Width                            : 720 pixels
Height                           : 304 pixels
Display aspect ratio             : 2.35:1
Frame rate                       : 23.976 fps
Color space                      : YUV
Chroma subsampling               : 4:2:0
Bit depth                        : 8 bits
Scan type                        : Progressive
Bits/(Pixel*Frame)               : 0.261
Stream size                      : 935 MiB (75%)
Writing library                  : XviD 1.2.1 (UTC 2008-12-04)
Audio
ID                               : 1
Format                           : AC-3
Format/Info                      : Audio Coding 3
Mode extension                   : CM (complete main)
Codec ID                         : 2000
Duration                         : 1h 35mn
Bit rate mode                    : Constant
Bit rate                         : 448 Kbps
Channel(s)                       : 6 channels
Channel positions                : Front: L C R, Side: L R, LFE
Sampling rate                    : 48.0 KHz
Bit depth                        : 16 bits
Stream size                      : 305 MiB (24%)
Alignment                        : Aligned on interleaves
Interleave, duration             : 42 ms (1.00 video frame)
Interleave, preload duration     : 512 ms

Screen : 
http://img718.imageshack.us/img718/5284/laposesiondeemmaevans20.jpg 
http://img96.imageshack.us/img96/5284/laposesiondeemmaevans20.jpg 
http://img690.imageshack.us/img690/5284/laposesiondeemmaevans20.jpg 
http://img200.imageshack.us/img200/5284/laposesiondeemmaevans20.jpg 
http://img651.imageshack.us/img651/5284/laposesiondeemmaevans20.jpg